<svg xmlns="http://www.w3.org/2000/svg" fill="none" viewBox="0 0 277 27"><g fill="#0F1419"><path d="M14.6 18.9h.3v4.5H14c-4.8 0-7.6-2.7-7.6-7.2v-2.3l1.6-.4A2.5 2.5 0 1 0 4.9 11v10H0V9.8a7.4 7.4 0 0 1 7.4-6.3c3.5 0 6.4 2.2 7.2 5.3a7.1 7.1 0 0 1-3.1 8c.4 1.7 1.2 2 3.1 2m12.2-8.7V13h-.5a3 3 0 0 0-2.2.8c-.6.5-.8 1.2-.8 2.2v5h-2.7V10.3h2.7v1.4c.8-1 1.8-1.6 3-1.6h.5Zm11.5 6.5h-8.1c.1.6.5 1.2 1 1.6.6.4 1.3.6 2 .5.6 0 1.1 0 1.7-.3.4-.2.9-.6 1.2-1l1.8 1.6c-.6.7-1.3 1.2-2.1 1.6-.9.4-1.8.5-2.7.5-1 0-2-.2-3-.7a5.4 5.4 0 0 1-2.9-4.8c0-1 .3-2 .8-2.9.4-.8 1.1-1.5 2-2 .9-.4 1.8-.7 2.8-.6a5.4 5.4 0 0 1 5.6 5.5v1ZM34.5 13a2.8 2.8 0 0 0-3.4 0c-.5.4-.8 1-1 1.6h5.4c-.1-.6-.5-1.2-1-1.6Zm21.2-1.9c.7.7 1 1.7 1 2.9v6.9h-2.6v-6.1c0-.7-.2-1.2-.6-1.6a2 2 0 0 0-1.5-.5c-.7 0-1.2.2-1.6.6a2 2 0 0 0-.6 1.5v6H47v-6c0-.6-.2-1.2-.6-1.6a2 2 0 0 0-1.5-.5 2.2 2.2 0 0 0-1.6.6 2.1 2.1 0 0 0-.6 1.5v6H40V10.4h2.7v1a4 4 0 0 1 3-1.3c.8 0 1.4.2 2 .5.6.3 1 .7 1.4 1.3.9-1.2 2-1.8 3.6-1.8a4 4 0 0 1 2.9 1.1Zm14 4.5a5.4 5.4 0 0 1-5.7 5.5c-1.6 0-3-.5-4-1.6-1.2-1-1.7-2.3-1.7-4 0-1.5.5-2.8 1.6-3.9a6 6 0 0 1 8.1 0 5.4 5.4 0 0 1 1.7 4Zm-3.6 2a3 3 0 0 0 0-4.1 3 3 0 0 0-4.2 0 3 3 0 0 0 0 4.2 3 3 0 0 0 4.2 0Zm8.5-4.8v4.4c0 .9.5 1.3 1.4 1.3.5 0 1-.1 1.4-.3v2.5a4 4 0 0 1-2 .4c-1.1 0-2-.3-2.6-1-.6-.5-1-1.4-1-2.5v-4.8h-1.6v-2.5H72V8.5l2.7-.9v2.7h2.8v2.5h-2.8Zm14.8 3.8h-8.2c.1.6.5 1.2 1 1.6.6.4 1.3.6 2 .5a3.8 3.8 0 0 0 2.9-1.3l1.8 1.6c-.6.7-1.3 1.2-2 1.6a7.2 7.2 0 0 1-5.8-.2 5.4 5.4 0 0 1-2.9-4.8c0-1 .3-2 .8-2.8.5-.9 1.2-1.6 2-2a5 5 0 0 1 2.9-.7 5.4 5.4 0 0 1 5.5 5.5v1ZM85.6 13a2.8 2.8 0 0 0-3.5 0c-.5.4-.8 1-1 1.6h5.5c-.2-.6-.5-1.2-1-1.6Z"/></g><path fill="#0F1419" d="M99.8 11.4h-3.2V18c0 1.2.6 1.7 1.8 1.7.5 0 1-.1 1.4-.4v1.1a3 3 0 0 1-1.6.4c-1.8 0-2.8-.9-2.8-2.6v-6.7h-2v-1h2V7.9l1.2-.4v2.9h3.2v1Zm10.8-1h1.2v10.1h-1.2v-2.4a4.8 4.8 0 0 1-4.4 2.6c-3 0-5.1-2.3-5.1-5.3s2.2-5.3 5.1-5.3c2 0 3.5 1 4.4 2.6v-2.3Zm-4.2 9.2a4 4 0 0 0 4.2-4.2 4 4 0 0 0-4.2-4.2 4 4 0 0 0-4.1 4.2 4 4 0 0 0 4.1 4.2Zm8.5.9V6.2h1.2v14.3h-1.2Zm14.2-5v.4h-9.3c.2 2.2 2 3.8 4.3 3.8 1.6 0 3-.8 3.8-2l.8.7a5.5 5.5 0 0 1-4.7 2.3 5.3 5.3 0 0 1-5.4-5.3c0-3 2.2-5.3 5.3-5.3 3 0 5.2 2.3 5.2 5.3Zm-1.2-.6a4 4 0 0 0-4-3.7 4 4 0 0 0-4.1 3.7h8.1Zm8.7-4.8c2.6 0 4.3 1.7 4.3 4.2v6.2h-1.1v-5.8c0-2.1-1.4-3.5-3.5-3.5s-3.6 1.4-3.6 3.5v5.8h-1.1V10.4h1.1v1.9a4.3 4.3 0 0 1 4-2.2Zm12.3 1.3h-3.2V18c0 1.2.6 1.7 1.8 1.7.4 0 1-.1 1.4-.4v1.1a3 3 0 0 1-1.7.4c-1.7 0-2.7-.9-2.7-2.6v-6.7h-2v-1h2V7.9l1.2-.4v2.9h3.2v1Zm8.1 12.9V5.6h1v18.7h-1ZM167.7 8a.8.8 0 0 1-.8-.9c0-.4.3-.8.8-.8a.8.8 0 1 1 0 1.7Zm-1.9 16.5c-.4 0-.8 0-1.2-.2v-1l1 .1c1 0 1.5-.5 1.5-1.5V10.4h1.2V22c0 1.6-1 2.5-2.5 2.5Zm10.3-3.8c-3 0-5.3-2.3-5.3-5.3s2.3-5.3 5.3-5.3a5.2 5.2 0 0 1 5.4 5.3c0 1-.2 2-.7 2.7a5.3 5.3 0 0 1-4.7 2.6Zm-4.1-5.3a4 4 0 0 0 4.1 4.2 4 4 0 0 0 4.2-4.2 4 4 0 0 0-4.2-4.2 4 4 0 0 0-4.1 4.2Zm17.5-5.3c3 0 5.2 2.3 5.2 5.3s-2.2 5.3-5.2 5.3a5 5 0 0 1-4.4-2.6v2.4H184V6.2h1.1v6.5a4.9 4.9 0 0 1 4.4-2.6Zm-4.4 5.3a4 4 0 0 0 4.2 4.2 4 4 0 0 0 4.2-4.2 4 4 0 0 0-4.2-4.2 4 4 0 0 0-4.2 4.2Zm20.5 5.3c-1.7 0-3-.6-4-1.6l.6-.8c.8.9 2 1.4 3.4 1.4 1.6 0 2.7-.7 2.7-1.8 0-.7-.3-1-.8-1.3l-.6-.3-1.4-.4c-1.6-.4-1.8-.5-2.4-.9-.4-.2-.6-.5-.9-.8-.2-.3-.3-.7-.3-1.2 0-.6.2-1.2.5-1.6.7-.9 1.9-1.3 3.2-1.3 1.5 0 2.7.5 3.6 1.4l-.6.9a4 4 0 0 0-3-1.2c-1.4 0-2.5.6-2.5 1.7 0 .5.3.9.6 1.1l.6.4 1.7.4c1 .3 1.2.3 2.2.8l.8.6c.3.4.5 1 .5 1.5 0 1.9-1.6 3-4 3Zm16.3-5.3v.5h-9.4c.2 2.2 2 3.8 4.3 3.8 1.6 0 3-.8 3.8-2l.8.7a5.5 5.5 0 0 1-4.6 2.3 5.3 5.3 0 0 1-5.5-5.3c0-3 2.3-5.3 5.3-5.3s5.3 2.3 5.3 5.3Zm-1.3-.5a4 4 0 0 0-4-3.7 4 4 0 0 0-4.1 3.7h8.1Zm13.6.5v.5h-9.4c.3 2.2 2 3.8 4.4 3.8 1.6 0 3-.8 3.8-2l.8.7a5.5 5.5 0 0 1-4.7 2.3 5.3 5.3 0 0 1-5.5-5.3c0-3 2.3-5.3 5.3-5.3s5.3 2.3 5.3 5.3ZM233 15a4 4 0 0 0-4-3.7 4 4 0 0 0-4.2 3.7h8.2Zm10.5 5.6-4.1-4.5-1.6 1.7v2.8h-1.2V6.2h1.2v10l5.6-5.8h1.5l-4.7 4.8 4.8 5.3h-1.5Zm12.5-5v.4h-9.3c.2 2.2 2 3.8 4.3 3.8 1.6 0 3-.8 3.8-2l.8.7a5.5 5.5 0 0 1-4.7 2.3 5.3 5.3 0 0 1-5.4-5.3c0-3 2.2-5.3 5.2-5.3s5.3 2.3 5.3 5.3Zm-1.2-.6a4 4 0 0 0-4-3.7 4 4 0 0 0-4.1 3.7h8.1Zm8.6-4.7h.3v1.2h-.3c-2.3 0-3.8 1.5-3.8 3.9v5.2h-1.1V10.4h1.1v2a4.1 4.1 0 0 1 3.8-2.2Zm5.4 10.5c-1.6 0-3-.6-4-1.6l.7-.8c.7.9 2 1.4 3.3 1.4 1.6 0 2.8-.7 2.8-1.8 0-.7-.4-1-.9-1.3l-.6-.3-1.3-.4c-1.7-.4-1.8-.5-2.5-.9-.4-.2-.6-.5-.8-.8-.3-.3-.4-.7-.4-1.2 0-.6.2-1.2.6-1.6.7-.9 1.8-1.3 3.2-1.3 1.4 0 2.6.5 3.5 1.4l-.6.9a4 4 0 0 0-3-1.2c-1.4 0-2.5.6-2.5 1.7 0 .5.3.9.6 1.1l.7.4 1.6.4c1 .3 1.3.3 2.2.8.4.1.5.3.8.6.4.4.6 1 .6 1.5 0 1.9-1.7 3-4 3Z"/></svg>